<svg width="41" height="42" viewBox="0 0 41 42" fill="none" xmlns="http://www.w3.org/2000/svg">
<g id="24 / basic / zoom-in">
<path id="icon" fill-rule="evenodd" clip-rule="evenodd" d="M3.41663 17.5C3.41663 25.232 9.5354 31.5 17.0833 31.5C20.2415 31.5 23.1495 30.4026 25.4638 28.5598L34.667 37.9874L37.0829 35.5126L27.8797 26.0849C29.6787 23.7142 30.75 20.7352 30.75 17.5C30.75 9.76801 24.6312 3.5 17.0833 3.5C9.5354 3.5 3.41663 9.76801 3.41663 17.5ZM17.0833 28C22.7442 28 27.3333 23.299 27.3333 17.5C27.3333 11.701 22.7442 7 17.0833 7C11.4224 7 6.83329 11.701 6.83329 17.5C6.83329 23.299 11.4224 28 17.0833 28ZM15.375 10.5V15.75H10.25V19.25H15.375V24.5H18.7916V19.25H23.9166V15.75H18.7916V10.5H15.375Z" fill="#FF37B1"/>
</g>
</svg>
